<mxfile host="app.diagrams.net" agent="Mozilla/5.0 (Windows NT 10.0; Win64; x64) AppleWebKit/537.36 (KHTML, like Gecko) Chrome/128.0.0.0 Safari/537.36" version="24.7.17">
  <diagram name="Page-1" id="UrSIMHSN78dXL3oGRir0">
    <mxGraphModel dx="1760" dy="1890" grid="1" gridSize="10" guides="1" tooltips="1" connect="1" arrows="1" fold="1" page="1" pageScale="1" pageWidth="850" pageHeight="1100" math="0" shadow="0">
      <root>
        <mxCell id="0" />
        <mxCell id="1" parent="0" />
        <mxCell id="R2IqZ1rW75b092OCPJyT-34" style="edgeStyle=orthogonalEdgeStyle;rounded=0;orthogonalLoop=1;jettySize=auto;html=1;" parent="1" source="o-_3mG_s1K9jIx6jlIY4-4" target="R2IqZ1rW75b092OCPJyT-31" edge="1">
          <mxGeometry relative="1" as="geometry" />
        </mxCell>
        <mxCell id="o-_3mG_s1K9jIx6jlIY4-4" value="Transporte" style="rounded=0;whiteSpace=wrap;html=1;fillColor=#fff2cc;strokeColor=#d6b656;gradientColor=#ffd966;" parent="1" vertex="1">
          <mxGeometry x="1000" y="1170" width="120" height="60" as="geometry" />
        </mxCell>
        <mxCell id="o-_3mG_s1K9jIx6jlIY4-6" value="Vehiculos de&lt;br&gt;alquiler" style="rounded=0;whiteSpace=wrap;html=1;fillColor=#fff2cc;strokeColor=#d6b656;gradientColor=#ffd966;" parent="1" vertex="1">
          <mxGeometry x="880" y="930" width="120" height="60" as="geometry" />
        </mxCell>
        <mxCell id="o-_3mG_s1K9jIx6jlIY4-8" value="Facturacion" style="rounded=0;whiteSpace=wrap;html=1;fillColor=#d5e8d4;strokeColor=#82b366;gradientColor=#97d077;" parent="1" vertex="1">
          <mxGeometry x="1750" y="260" width="120" height="60" as="geometry" />
        </mxCell>
        <mxCell id="jHd-pFRLJOlzFXW1EjXZ-3" style="edgeStyle=orthogonalEdgeStyle;rounded=0;orthogonalLoop=1;jettySize=auto;html=1;exitX=1;exitY=0.5;exitDx=0;exitDy=0;entryX=0.5;entryY=0;entryDx=0;entryDy=0;" parent="1" source="o-_3mG_s1K9jIx6jlIY4-9" target="o-_3mG_s1K9jIx6jlIY4-8" edge="1">
          <mxGeometry relative="1" as="geometry" />
        </mxCell>
        <mxCell id="jHd-pFRLJOlzFXW1EjXZ-4" style="edgeStyle=orthogonalEdgeStyle;rounded=0;orthogonalLoop=1;jettySize=auto;html=1;exitX=0.25;exitY=1;exitDx=0;exitDy=0;entryX=0.75;entryY=0;entryDx=0;entryDy=0;" parent="1" source="o-_3mG_s1K9jIx6jlIY4-9" target="o-_3mG_s1K9jIx6jlIY4-84" edge="1">
          <mxGeometry relative="1" as="geometry" />
        </mxCell>
        <mxCell id="o-_3mG_s1K9jIx6jlIY4-9" value="Reembolsos" style="rounded=0;whiteSpace=wrap;html=1;fillColor=#d5e8d4;strokeColor=#82b366;gradientColor=#97d077;" parent="1" vertex="1">
          <mxGeometry x="1560" y="110" width="100" height="60" as="geometry" />
        </mxCell>
        <mxCell id="jHd-pFRLJOlzFXW1EjXZ-5" style="edgeStyle=orthogonalEdgeStyle;rounded=0;orthogonalLoop=1;jettySize=auto;html=1;exitX=0.5;exitY=1;exitDx=0;exitDy=0;entryX=0.25;entryY=0;entryDx=0;entryDy=0;" parent="1" source="o-_3mG_s1K9jIx6jlIY4-10" target="o-_3mG_s1K9jIx6jlIY4-113" edge="1">
          <mxGeometry relative="1" as="geometry" />
        </mxCell>
        <mxCell id="o-_3mG_s1K9jIx6jlIY4-10" value="Personal" style="rounded=0;whiteSpace=wrap;html=1;fillColor=#fad9d5;strokeColor=#ae4132;" parent="1" vertex="1">
          <mxGeometry x="750" y="20" width="120" height="60" as="geometry" />
        </mxCell>
        <mxCell id="o-_3mG_s1K9jIx6jlIY4-11" value="Seguros&lt;br&gt;de viaje" style="rounded=0;whiteSpace=wrap;html=1;fillColor=#d5e8d4;strokeColor=#82b366;gradientColor=#97d077;" parent="1" vertex="1">
          <mxGeometry x="1730" y="370" width="120" height="60" as="geometry" />
        </mxCell>
        <mxCell id="o-_3mG_s1K9jIx6jlIY4-136" style="edgeStyle=orthogonalEdgeStyle;rounded=0;orthogonalLoop=1;jettySize=auto;html=1;" parent="1" source="o-_3mG_s1K9jIx6jlIY4-12" target="o-_3mG_s1K9jIx6jlIY4-113" edge="1">
          <mxGeometry relative="1" as="geometry" />
        </mxCell>
        <mxCell id="o-_3mG_s1K9jIx6jlIY4-12" value="Calificaciones" style="rounded=0;whiteSpace=wrap;html=1;fillColor=#fad9d5;strokeColor=#ae4132;" parent="1" vertex="1">
          <mxGeometry x="685" y="310" width="120" height="60" as="geometry" />
        </mxCell>
        <mxCell id="o-_3mG_s1K9jIx6jlIY4-22" value="Cualquier servicio es suceptible de tener calificaciones" style="text;html=1;align=center;verticalAlign=middle;whiteSpace=wrap;rounded=0;" parent="1" vertex="1">
          <mxGeometry x="655" y="240" width="160" height="60" as="geometry" />
        </mxCell>
        <mxCell id="o-_3mG_s1K9jIx6jlIY4-26" value="provincia" style="ellipse;whiteSpace=wrap;html=1;" parent="1" vertex="1">
          <mxGeometry x="1500" y="902.5" width="100" height="20" as="geometry" />
        </mxCell>
        <mxCell id="R2IqZ1rW75b092OCPJyT-41" style="edgeStyle=orthogonalEdgeStyle;rounded=0;orthogonalLoop=1;jettySize=auto;html=1;" parent="1" source="o-_3mG_s1K9jIx6jlIY4-27" target="o-_3mG_s1K9jIx6jlIY4-6" edge="1">
          <mxGeometry relative="1" as="geometry" />
        </mxCell>
        <mxCell id="o-_3mG_s1K9jIx6jlIY4-27" value="Destinos" style="rounded=0;whiteSpace=wrap;html=1;fillColor=#dae8fc;strokeColor=#6c8ebf;gradientColor=#7ea6e0;" parent="1" vertex="1">
          <mxGeometry x="1360" y="870" width="120" height="60" as="geometry" />
        </mxCell>
        <mxCell id="o-_3mG_s1K9jIx6jlIY4-29" value="nombre" style="ellipse;whiteSpace=wrap;html=1;" parent="1" vertex="1">
          <mxGeometry x="1500" y="877.5" width="100" height="20" as="geometry" />
        </mxCell>
        <mxCell id="o-_3mG_s1K9jIx6jlIY4-31" value="id" style="ellipse;whiteSpace=wrap;html=1;fontStyle=4" parent="1" vertex="1">
          <mxGeometry x="1500" y="857.5" width="100" height="20" as="geometry" />
        </mxCell>
        <mxCell id="o-_3mG_s1K9jIx6jlIY4-36" value="ubicacion" style="ellipse;whiteSpace=wrap;html=1;fillColor=#dae8fc;strokeColor=#6c8ebf;" parent="1" vertex="1">
          <mxGeometry x="770" y="960" width="100" height="20" as="geometry" />
        </mxCell>
        <mxCell id="o-_3mG_s1K9jIx6jlIY4-38" value="id" style="ellipse;whiteSpace=wrap;html=1;fontStyle=4" parent="1" vertex="1">
          <mxGeometry x="770" y="940" width="100" height="20" as="geometry" />
        </mxCell>
        <mxCell id="o-_3mG_s1K9jIx6jlIY4-42" value="Roles:&lt;br&gt;- Chofer&lt;div&gt;- Agente de reservas&lt;/div&gt;&lt;div&gt;- Guia turistico&lt;/div&gt;" style="text;html=1;align=center;verticalAlign=middle;whiteSpace=wrap;rounded=0;" parent="1" vertex="1">
          <mxGeometry x="880" y="50" width="160" height="60" as="geometry" />
        </mxCell>
        <mxCell id="o-_3mG_s1K9jIx6jlIY4-43" value="rol" style="ellipse;whiteSpace=wrap;html=1;" parent="1" vertex="1">
          <mxGeometry x="910" y="20" width="100" height="20" as="geometry" />
        </mxCell>
        <mxCell id="o-_3mG_s1K9jIx6jlIY4-45" value="" style="endArrow=none;html=1;rounded=0;" parent="1" source="o-_3mG_s1K9jIx6jlIY4-43" target="o-_3mG_s1K9jIx6jlIY4-10" edge="1">
          <mxGeometry width="50" height="50" relative="1" as="geometry">
            <mxPoint x="930" as="sourcePoint" />
            <mxPoint x="980" y="-50" as="targetPoint" />
          </mxGeometry>
        </mxCell>
        <mxCell id="o-_3mG_s1K9jIx6jlIY4-75" value="ubicacion" style="ellipse;whiteSpace=wrap;html=1;fillColor=#dae8fc;strokeColor=#6c8ebf;" parent="1" vertex="1">
          <mxGeometry x="1005" y="1390" width="100" height="20" as="geometry" />
        </mxCell>
        <mxCell id="o-_3mG_s1K9jIx6jlIY4-76" value="id" style="ellipse;whiteSpace=wrap;html=1;fontStyle=4" parent="1" vertex="1">
          <mxGeometry x="1005" y="1245" width="100" height="20" as="geometry" />
        </mxCell>
        <mxCell id="o-_3mG_s1K9jIx6jlIY4-80" value="Clientes" style="rounded=0;whiteSpace=wrap;html=1;fillColor=#d5e8d4;strokeColor=#82b366;gradientColor=#97d077;" parent="1" vertex="1">
          <mxGeometry x="1630" y="535" width="120" height="60" as="geometry" />
        </mxCell>
        <mxCell id="o-_3mG_s1K9jIx6jlIY4-81" style="edgeStyle=orthogonalEdgeStyle;rounded=0;orthogonalLoop=1;jettySize=auto;html=1;" parent="1" source="o-_3mG_s1K9jIx6jlIY4-84" target="o-_3mG_s1K9jIx6jlIY4-80" edge="1">
          <mxGeometry relative="1" as="geometry" />
        </mxCell>
        <mxCell id="o-_3mG_s1K9jIx6jlIY4-135" style="edgeStyle=orthogonalEdgeStyle;rounded=0;orthogonalLoop=1;jettySize=auto;html=1;" parent="1" source="o-_3mG_s1K9jIx6jlIY4-84" target="o-_3mG_s1K9jIx6jlIY4-133" edge="1">
          <mxGeometry relative="1" as="geometry" />
        </mxCell>
        <mxCell id="R2IqZ1rW75b092OCPJyT-24" style="edgeStyle=orthogonalEdgeStyle;rounded=0;orthogonalLoop=1;jettySize=auto;html=1;" parent="1" source="R2IqZ1rW75b092OCPJyT-20" target="o-_3mG_s1K9jIx6jlIY4-27" edge="1">
          <mxGeometry relative="1" as="geometry" />
        </mxCell>
        <mxCell id="jHd-pFRLJOlzFXW1EjXZ-2" style="edgeStyle=orthogonalEdgeStyle;rounded=0;orthogonalLoop=1;jettySize=auto;html=1;exitX=0.75;exitY=0;exitDx=0;exitDy=0;entryX=0;entryY=0.25;entryDx=0;entryDy=0;" parent="1" source="o-_3mG_s1K9jIx6jlIY4-84" target="o-_3mG_s1K9jIx6jlIY4-8" edge="1">
          <mxGeometry relative="1" as="geometry" />
        </mxCell>
        <mxCell id="jHd-pFRLJOlzFXW1EjXZ-6" style="edgeStyle=orthogonalEdgeStyle;rounded=0;orthogonalLoop=1;jettySize=auto;html=1;exitX=0.25;exitY=0;exitDx=0;exitDy=0;entryX=0.75;entryY=1;entryDx=0;entryDy=0;" parent="1" source="o-_3mG_s1K9jIx6jlIY4-84" target="o-_3mG_s1K9jIx6jlIY4-10" edge="1">
          <mxGeometry relative="1" as="geometry">
            <Array as="points">
              <mxPoint x="1390" y="240" />
              <mxPoint x="840" y="240" />
            </Array>
          </mxGeometry>
        </mxCell>
        <mxCell id="f95F2fE4uRstGQk8PJ_7-2" style="edgeStyle=orthogonalEdgeStyle;rounded=0;orthogonalLoop=1;jettySize=auto;html=1;exitX=0.5;exitY=0;exitDx=0;exitDy=0;entryX=0.5;entryY=1;entryDx=0;entryDy=0;" parent="1" source="o-_3mG_s1K9jIx6jlIY4-84" target="f95F2fE4uRstGQk8PJ_7-1" edge="1">
          <mxGeometry relative="1" as="geometry" />
        </mxCell>
        <mxCell id="f95F2fE4uRstGQk8PJ_7-6" style="edgeStyle=orthogonalEdgeStyle;rounded=0;orthogonalLoop=1;jettySize=auto;html=1;exitX=0;exitY=0;exitDx=0;exitDy=0;entryX=1;entryY=0.25;entryDx=0;entryDy=0;" parent="1" source="o-_3mG_s1K9jIx6jlIY4-84" target="o-_3mG_s1K9jIx6jlIY4-113" edge="1">
          <mxGeometry relative="1" as="geometry">
            <Array as="points">
              <mxPoint x="1360" y="265" />
              <mxPoint x="1180" y="265" />
              <mxPoint x="1180" y="325" />
            </Array>
          </mxGeometry>
        </mxCell>
        <mxCell id="o-_3mG_s1K9jIx6jlIY4-84" value="Reservas" style="rounded=0;whiteSpace=wrap;html=1;fillColor=#dae8fc;strokeColor=#6c8ebf;gradientColor=#7ea6e0;" parent="1" vertex="1">
          <mxGeometry x="1360" y="285" width="120" height="60" as="geometry" />
        </mxCell>
        <mxCell id="o-_3mG_s1K9jIx6jlIY4-85" value="Alojamientos" style="rounded=0;whiteSpace=wrap;html=1;fillColor=#fff2cc;strokeColor=#d6b656;gradientColor=#ffd966;" parent="1" vertex="1">
          <mxGeometry x="880" y="635" width="120" height="60" as="geometry" />
        </mxCell>
        <mxCell id="o-_3mG_s1K9jIx6jlIY4-86" value="Excursiones" style="rounded=0;whiteSpace=wrap;html=1;fillColor=#fff2cc;strokeColor=#d6b656;gradientColor=#ffd966;" parent="1" vertex="1">
          <mxGeometry x="880" y="762.5" width="120" height="60" as="geometry" />
        </mxCell>
        <mxCell id="o-_3mG_s1K9jIx6jlIY4-88" value="cantidad_personas" style="ellipse;whiteSpace=wrap;html=1;" parent="1" vertex="1">
          <mxGeometry x="1450" y="455" width="125" height="20" as="geometry" />
        </mxCell>
        <mxCell id="o-_3mG_s1K9jIx6jlIY4-89" value="dni" style="ellipse;whiteSpace=wrap;html=1;fontStyle=4" parent="1" vertex="1">
          <mxGeometry x="1770" y="525" width="100" height="20" as="geometry" />
        </mxCell>
        <mxCell id="o-_3mG_s1K9jIx6jlIY4-90" value="fecha_inicio" style="ellipse;whiteSpace=wrap;html=1;fillColor=#f8cecc;strokeColor=#b85450;" parent="1" vertex="1">
          <mxGeometry x="1463.75" y="545" width="100" height="20" as="geometry" />
        </mxCell>
        <mxCell id="o-_3mG_s1K9jIx6jlIY4-91" value="¿que entidad lleva las fechas?" style="text;html=1;align=center;verticalAlign=middle;whiteSpace=wrap;rounded=0;" parent="1" vertex="1">
          <mxGeometry x="1430" y="585" width="160" height="60" as="geometry" />
        </mxCell>
        <mxCell id="o-_3mG_s1K9jIx6jlIY4-92" value="fecha_fin" style="ellipse;whiteSpace=wrap;html=1;fillColor=#f8cecc;strokeColor=#b85450;" parent="1" vertex="1">
          <mxGeometry x="1463.75" y="575" width="100" height="20" as="geometry" />
        </mxCell>
        <mxCell id="o-_3mG_s1K9jIx6jlIY4-93" value="apellido" style="ellipse;whiteSpace=wrap;html=1;" parent="1" vertex="1">
          <mxGeometry x="1770" y="585" width="100" height="20" as="geometry" />
        </mxCell>
        <mxCell id="o-_3mG_s1K9jIx6jlIY4-100" value="cliente" style="ellipse;whiteSpace=wrap;html=1;fillColor=#dae8fc;strokeColor=#6c8ebf;" parent="1" vertex="1">
          <mxGeometry x="1460" y="425" width="100" height="20" as="geometry" />
        </mxCell>
        <mxCell id="o-_3mG_s1K9jIx6jlIY4-101" value="nombre" style="ellipse;whiteSpace=wrap;html=1;" parent="1" vertex="1">
          <mxGeometry x="770" y="560" width="100" height="20" as="geometry" />
        </mxCell>
        <mxCell id="o-_3mG_s1K9jIx6jlIY4-102" value="id" style="ellipse;whiteSpace=wrap;html=1;fontStyle=4" parent="1" vertex="1">
          <mxGeometry x="770" y="540" width="100" height="20" as="geometry" />
        </mxCell>
        <mxCell id="o-_3mG_s1K9jIx6jlIY4-103" value="precio_por_dia" style="ellipse;whiteSpace=wrap;html=1;" parent="1" vertex="1">
          <mxGeometry x="770" y="650" width="100" height="20" as="geometry" />
        </mxCell>
        <mxCell id="o-_3mG_s1K9jIx6jlIY4-104" value="puntuacion" style="ellipse;whiteSpace=wrap;html=1;" parent="1" vertex="1">
          <mxGeometry x="770" y="680" width="100" height="20" as="geometry" />
        </mxCell>
        <mxCell id="o-_3mG_s1K9jIx6jlIY4-105" value="comodidades" style="ellipse;whiteSpace=wrap;html=1;" parent="1" vertex="1">
          <mxGeometry x="770" y="625" width="100" height="20" as="geometry" />
        </mxCell>
        <mxCell id="o-_3mG_s1K9jIx6jlIY4-106" value="fechas ocupadas" style="ellipse;whiteSpace=wrap;html=1;fillColor=#f8cecc;strokeColor=#b85450;" parent="1" vertex="1">
          <mxGeometry x="770" y="710" width="100" height="20" as="geometry" />
        </mxCell>
        <mxCell id="o-_3mG_s1K9jIx6jlIY4-107" value="capacidad_personas" style="ellipse;whiteSpace=wrap;html=1;" parent="1" vertex="1">
          <mxGeometry x="770" y="605" width="130" height="20" as="geometry" />
        </mxCell>
        <mxCell id="o-_3mG_s1K9jIx6jlIY4-108" value="ubicacion" style="ellipse;whiteSpace=wrap;html=1;fillColor=#dae8fc;strokeColor=#6c8ebf;" parent="1" vertex="1">
          <mxGeometry x="770" y="585" width="100" height="20" as="geometry" />
        </mxCell>
        <mxCell id="o-_3mG_s1K9jIx6jlIY4-109" value="destino" style="ellipse;whiteSpace=wrap;html=1;fillColor=#dae8fc;strokeColor=#6c8ebf;" parent="1" vertex="1">
          <mxGeometry x="770" y="792.5" width="100" height="20" as="geometry" />
        </mxCell>
        <mxCell id="o-_3mG_s1K9jIx6jlIY4-110" value="id" style="ellipse;whiteSpace=wrap;html=1;fontStyle=4" parent="1" vertex="1">
          <mxGeometry x="770" y="772.5" width="100" height="20" as="geometry" />
        </mxCell>
        <mxCell id="o-_3mG_s1K9jIx6jlIY4-111" value="id" style="ellipse;whiteSpace=wrap;html=1;fontStyle=4" parent="1" vertex="1">
          <mxGeometry x="1182.5" y="-90" width="125" height="20" as="geometry" />
        </mxCell>
        <mxCell id="R2IqZ1rW75b092OCPJyT-37" style="edgeStyle=orthogonalEdgeStyle;rounded=0;orthogonalLoop=1;jettySize=auto;html=1;entryX=1;entryY=0.5;entryDx=0;entryDy=0;" parent="1" source="o-_3mG_s1K9jIx6jlIY4-113" target="o-_3mG_s1K9jIx6jlIY4-85" edge="1">
          <mxGeometry relative="1" as="geometry" />
        </mxCell>
        <mxCell id="R2IqZ1rW75b092OCPJyT-38" style="edgeStyle=orthogonalEdgeStyle;rounded=0;orthogonalLoop=1;jettySize=auto;html=1;entryX=1;entryY=0.5;entryDx=0;entryDy=0;" parent="1" source="o-_3mG_s1K9jIx6jlIY4-113" target="o-_3mG_s1K9jIx6jlIY4-86" edge="1">
          <mxGeometry relative="1" as="geometry" />
        </mxCell>
        <mxCell id="R2IqZ1rW75b092OCPJyT-39" style="edgeStyle=orthogonalEdgeStyle;rounded=0;orthogonalLoop=1;jettySize=auto;html=1;entryX=1;entryY=0.5;entryDx=0;entryDy=0;" parent="1" source="o-_3mG_s1K9jIx6jlIY4-113" target="o-_3mG_s1K9jIx6jlIY4-6" edge="1">
          <mxGeometry relative="1" as="geometry" />
        </mxCell>
        <mxCell id="R2IqZ1rW75b092OCPJyT-40" style="edgeStyle=orthogonalEdgeStyle;rounded=0;orthogonalLoop=1;jettySize=auto;html=1;" parent="1" source="o-_3mG_s1K9jIx6jlIY4-113" target="o-_3mG_s1K9jIx6jlIY4-4" edge="1">
          <mxGeometry relative="1" as="geometry" />
        </mxCell>
        <mxCell id="o-_3mG_s1K9jIx6jlIY4-113" value="Servicio" style="rounded=0;whiteSpace=wrap;html=1;fillColor=#fad9d5;strokeColor=#ae4132;" parent="1" vertex="1">
          <mxGeometry x="1000" y="310" width="120" height="60" as="geometry" />
        </mxCell>
        <mxCell id="o-_3mG_s1K9jIx6jlIY4-116" value="nombre" style="ellipse;whiteSpace=wrap;html=1;" parent="1" vertex="1">
          <mxGeometry x="1770" y="555" width="100" height="20" as="geometry" />
        </mxCell>
        <mxCell id="o-_3mG_s1K9jIx6jlIY4-121" value="estado_pago" style="ellipse;whiteSpace=wrap;html=1;" parent="1" vertex="1">
          <mxGeometry x="1447.5" y="485" width="125" height="20" as="geometry" />
        </mxCell>
        <mxCell id="o-_3mG_s1K9jIx6jlIY4-123" value="id" style="ellipse;whiteSpace=wrap;html=1;fontStyle=4" parent="1" vertex="1">
          <mxGeometry x="900" y="375" width="100" height="20" as="geometry" />
        </mxCell>
        <mxCell id="o-_3mG_s1K9jIx6jlIY4-124" value="Paquetes" style="rounded=0;whiteSpace=wrap;html=1;fillColor=#bac8d3;strokeColor=#23445d;" parent="1" vertex="1">
          <mxGeometry x="1180" y="120" width="120" height="60" as="geometry" />
        </mxCell>
        <mxCell id="o-_3mG_s1K9jIx6jlIY4-125" value="prearmados" style="text;html=1;align=center;verticalAlign=middle;whiteSpace=wrap;rounded=0;" parent="1" vertex="1">
          <mxGeometry x="1160" y="170" width="160" height="60" as="geometry" />
        </mxCell>
        <mxCell id="o-_3mG_s1K9jIx6jlIY4-129" value="" style="edgeStyle=orthogonalEdgeStyle;rounded=0;orthogonalLoop=1;jettySize=auto;html=1;" parent="1" source="o-_3mG_s1K9jIx6jlIY4-113" target="o-_3mG_s1K9jIx6jlIY4-126" edge="1">
          <mxGeometry relative="1" as="geometry">
            <mxPoint x="1060" y="310" as="sourcePoint" />
            <mxPoint x="1150" y="160" as="targetPoint" />
            <Array as="points" />
          </mxGeometry>
        </mxCell>
        <mxCell id="R2IqZ1rW75b092OCPJyT-36" style="edgeStyle=orthogonalEdgeStyle;rounded=0;orthogonalLoop=1;jettySize=auto;html=1;" parent="1" source="o-_3mG_s1K9jIx6jlIY4-126" target="o-_3mG_s1K9jIx6jlIY4-124" edge="1">
          <mxGeometry relative="1" as="geometry" />
        </mxCell>
        <mxCell id="o-_3mG_s1K9jIx6jlIY4-126" value="item_paquete" style="rhombus;whiteSpace=wrap;html=1;fillColor=#bac8d3;strokeColor=#23445d;" parent="1" vertex="1">
          <mxGeometry x="1020" y="110" width="80" height="80" as="geometry" />
        </mxCell>
        <mxCell id="o-_3mG_s1K9jIx6jlIY4-131" value="" style="edgeStyle=orthogonalEdgeStyle;rounded=0;orthogonalLoop=1;jettySize=auto;html=1;" parent="1" source="o-_3mG_s1K9jIx6jlIY4-84" target="o-_3mG_s1K9jIx6jlIY4-127" edge="1">
          <mxGeometry relative="1" as="geometry">
            <mxPoint x="1330" y="375" as="sourcePoint" />
            <mxPoint x="1170" y="325" as="targetPoint" />
          </mxGeometry>
        </mxCell>
        <mxCell id="f95F2fE4uRstGQk8PJ_7-5" style="edgeStyle=orthogonalEdgeStyle;rounded=0;orthogonalLoop=1;jettySize=auto;html=1;exitX=1;exitY=1;exitDx=0;exitDy=0;entryX=0;entryY=0.5;entryDx=0;entryDy=0;" parent="1" source="o-_3mG_s1K9jIx6jlIY4-127" target="o-_3mG_s1K9jIx6jlIY4-11" edge="1">
          <mxGeometry relative="1" as="geometry">
            <mxPoint x="1320" y="420" as="targetPoint" />
            <Array as="points">
              <mxPoint x="1270" y="370" />
              <mxPoint x="1640" y="370" />
              <mxPoint x="1640" y="400" />
            </Array>
          </mxGeometry>
        </mxCell>
        <mxCell id="o-_3mG_s1K9jIx6jlIY4-127" value="Adicionales" style="rhombus;whiteSpace=wrap;html=1;fillColor=#fad9d5;strokeColor=#ae4132;" parent="1" vertex="1">
          <mxGeometry x="1210" y="300" width="80" height="80" as="geometry" />
        </mxCell>
        <mxCell id="R2IqZ1rW75b092OCPJyT-35" style="edgeStyle=orthogonalEdgeStyle;rounded=0;orthogonalLoop=1;jettySize=auto;html=1;" parent="1" source="o-_3mG_s1K9jIx6jlIY4-133" target="o-_3mG_s1K9jIx6jlIY4-124" edge="1">
          <mxGeometry relative="1" as="geometry" />
        </mxCell>
        <mxCell id="o-_3mG_s1K9jIx6jlIY4-133" value="contrata" style="rhombus;whiteSpace=wrap;html=1;fillColor=#bac8d3;strokeColor=#23445d;" parent="1" vertex="1">
          <mxGeometry x="1380" y="110" width="80" height="80" as="geometry" />
        </mxCell>
        <mxCell id="o-_3mG_s1K9jIx6jlIY4-137" value="destino" style="ellipse;whiteSpace=wrap;html=1;fillColor=#dae8fc;strokeColor=#6c8ebf;" parent="1" vertex="1">
          <mxGeometry x="1455" y="515" width="125" height="20" as="geometry" />
        </mxCell>
        <mxCell id="o-_3mG_s1K9jIx6jlIY4-138" value="cliente" style="ellipse;whiteSpace=wrap;html=1;fillColor=#dae8fc;strokeColor=#6c8ebf;" parent="1" vertex="1">
          <mxGeometry x="570" y="295" width="100" height="20" as="geometry" />
        </mxCell>
        <mxCell id="o-_3mG_s1K9jIx6jlIY4-139" value="servicio" style="ellipse;whiteSpace=wrap;html=1;fillColor=#dae8fc;strokeColor=#6c8ebf;" parent="1" vertex="1">
          <mxGeometry x="570" y="320" width="100" height="20" as="geometry" />
        </mxCell>
        <mxCell id="o-_3mG_s1K9jIx6jlIY4-140" value="detalle" style="ellipse;whiteSpace=wrap;html=1;" parent="1" vertex="1">
          <mxGeometry x="570" y="345" width="100" height="20" as="geometry" />
        </mxCell>
        <mxCell id="o-_3mG_s1K9jIx6jlIY4-141" value="puntaje" style="ellipse;whiteSpace=wrap;html=1;" parent="1" vertex="1">
          <mxGeometry x="570" y="370" width="100" height="20" as="geometry" />
        </mxCell>
        <mxCell id="o-_3mG_s1K9jIx6jlIY4-142" value="id" style="ellipse;whiteSpace=wrap;html=1;fontStyle=4" parent="1" vertex="1">
          <mxGeometry x="1451.25" y="395" width="125" height="20" as="geometry" />
        </mxCell>
        <mxCell id="o-_3mG_s1K9jIx6jlIY4-143" value="ubicacion" style="ellipse;whiteSpace=wrap;html=1;fillColor=#dae8fc;strokeColor=#6c8ebf;" parent="1" vertex="1">
          <mxGeometry x="1195" y="-60" width="100" height="20" as="geometry" />
        </mxCell>
        <mxCell id="o-_3mG_s1K9jIx6jlIY4-145" value="coordenadas" style="ellipse;whiteSpace=wrap;html=1;" parent="1" vertex="1">
          <mxGeometry x="1500" y="922.5" width="100" height="20" as="geometry" />
        </mxCell>
        <mxCell id="o-_3mG_s1K9jIx6jlIY4-146" value="tipo" style="ellipse;whiteSpace=wrap;html=1;" parent="1" vertex="1">
          <mxGeometry x="770" y="980" width="100" height="20" as="geometry" />
        </mxCell>
        <mxCell id="o-_3mG_s1K9jIx6jlIY4-147" value="marca" style="ellipse;whiteSpace=wrap;html=1;" parent="1" vertex="1">
          <mxGeometry x="770" y="1000" width="100" height="20" as="geometry" />
        </mxCell>
        <mxCell id="o-_3mG_s1K9jIx6jlIY4-148" value="modelo" style="ellipse;whiteSpace=wrap;html=1;" parent="1" vertex="1">
          <mxGeometry x="770" y="1020" width="100" height="20" as="geometry" />
        </mxCell>
        <mxCell id="o-_3mG_s1K9jIx6jlIY4-149" value="disponibilidad" style="ellipse;whiteSpace=wrap;html=1;" parent="1" vertex="1">
          <mxGeometry x="770" y="1040" width="100" height="20" as="geometry" />
        </mxCell>
        <mxCell id="o-_3mG_s1K9jIx6jlIY4-150" value="capacidad_personas" style="ellipse;whiteSpace=wrap;html=1;" parent="1" vertex="1">
          <mxGeometry x="770" y="1060" width="100" height="20" as="geometry" />
        </mxCell>
        <mxCell id="o-_3mG_s1K9jIx6jlIY4-151" value="precio" style="ellipse;whiteSpace=wrap;html=1;" parent="1" vertex="1">
          <mxGeometry x="770" y="1080" width="100" height="20" as="geometry" />
        </mxCell>
        <mxCell id="o-_3mG_s1K9jIx6jlIY4-152" value="tipo" style="ellipse;whiteSpace=wrap;html=1;" parent="1" vertex="1">
          <mxGeometry x="1005" y="1265" width="100" height="20" as="geometry" />
        </mxCell>
        <mxCell id="o-_3mG_s1K9jIx6jlIY4-153" value="origen" style="ellipse;whiteSpace=wrap;html=1;fillColor=#dae8fc;strokeColor=#6c8ebf;" parent="1" vertex="1">
          <mxGeometry x="1005" y="1285" width="100" height="20" as="geometry" />
        </mxCell>
        <mxCell id="o-_3mG_s1K9jIx6jlIY4-154" value="destino" style="ellipse;whiteSpace=wrap;html=1;fillColor=#dae8fc;strokeColor=#6c8ebf;" parent="1" vertex="1">
          <mxGeometry x="1005" y="1305" width="100" height="20" as="geometry" />
        </mxCell>
        <mxCell id="o-_3mG_s1K9jIx6jlIY4-155" value="fecha_inicio" style="ellipse;whiteSpace=wrap;html=1;fillColor=#f8cecc;strokeColor=#b85450;" parent="1" vertex="1">
          <mxGeometry x="1005" y="1325" width="100" height="20" as="geometry" />
        </mxCell>
        <mxCell id="o-_3mG_s1K9jIx6jlIY4-156" value="fecha_fin" style="ellipse;whiteSpace=wrap;html=1;fillColor=#f8cecc;strokeColor=#b85450;" parent="1" vertex="1">
          <mxGeometry x="1005" y="1355" width="100" height="20" as="geometry" />
        </mxCell>
        <mxCell id="o-_3mG_s1K9jIx6jlIY4-157" value="capacidad_personas" style="ellipse;whiteSpace=wrap;html=1;" parent="1" vertex="1">
          <mxGeometry x="790" y="1277.5" width="100" height="20" as="geometry" />
        </mxCell>
        <mxCell id="o-_3mG_s1K9jIx6jlIY4-158" value="disponibilidad" style="ellipse;whiteSpace=wrap;html=1;" parent="1" vertex="1">
          <mxGeometry x="1015" y="1420" width="100" height="20" as="geometry" />
        </mxCell>
        <mxCell id="o-_3mG_s1K9jIx6jlIY4-159" value="precio" style="ellipse;whiteSpace=wrap;html=1;" parent="1" vertex="1">
          <mxGeometry x="1015" y="1440" width="100" height="20" as="geometry" />
        </mxCell>
        <mxCell id="o-_3mG_s1K9jIx6jlIY4-160" value="tipo_act" style="ellipse;whiteSpace=wrap;html=1;" parent="1" vertex="1">
          <mxGeometry x="770" y="810" width="100" height="20" as="geometry" />
        </mxCell>
        <mxCell id="o-_3mG_s1K9jIx6jlIY4-162" value="fecha_inicio" style="ellipse;whiteSpace=wrap;html=1;fillColor=#f8cecc;strokeColor=#b85450;" parent="1" vertex="1">
          <mxGeometry x="770" y="857.5" width="100" height="20" as="geometry" />
        </mxCell>
        <mxCell id="o-_3mG_s1K9jIx6jlIY4-163" value="fecha_fin" style="ellipse;whiteSpace=wrap;html=1;fillColor=#f8cecc;strokeColor=#b85450;" parent="1" vertex="1">
          <mxGeometry x="770" y="877.5" width="100" height="20" as="geometry" />
        </mxCell>
        <mxCell id="o-_3mG_s1K9jIx6jlIY4-164" value="guia" style="ellipse;whiteSpace=wrap;html=1;fillColor=#dae8fc;strokeColor=#6c8ebf;" parent="1" vertex="1">
          <mxGeometry x="770" y="832.5" width="100" height="20" as="geometry" />
        </mxCell>
        <mxCell id="R2IqZ1rW75b092OCPJyT-2" value="id_servicio" style="ellipse;whiteSpace=wrap;html=1;fillColor=#dae8fc;strokeColor=#6c8ebf;" parent="1" vertex="1">
          <mxGeometry x="1160" y="660" width="100" height="20" as="geometry" />
        </mxCell>
        <mxCell id="R2IqZ1rW75b092OCPJyT-3" value="id_seguro" style="ellipse;whiteSpace=wrap;html=1;fillColor=#dae8fc;strokeColor=#6c8ebf;" parent="1" vertex="1">
          <mxGeometry x="1200" y="450" width="100" height="20" as="geometry" />
        </mxCell>
        <mxCell id="R2IqZ1rW75b092OCPJyT-4" value="paquete" style="ellipse;whiteSpace=wrap;html=1;fillColor=#dae8fc;strokeColor=#6c8ebf;" parent="1" vertex="1">
          <mxGeometry x="1200" y="480" width="100" height="20" as="geometry" />
        </mxCell>
        <mxCell id="R2IqZ1rW75b092OCPJyT-6" value="precio" style="ellipse;whiteSpace=wrap;html=1;" parent="1" vertex="1">
          <mxGeometry x="1200" y="510" width="100" height="20" as="geometry" />
        </mxCell>
        <mxCell id="R2IqZ1rW75b092OCPJyT-7" value="cantidad" style="ellipse;whiteSpace=wrap;html=1;" parent="1" vertex="1">
          <mxGeometry x="1200" y="535" width="100" height="20" as="geometry" />
        </mxCell>
        <mxCell id="R2IqZ1rW75b092OCPJyT-8" value="id_reserva" style="ellipse;whiteSpace=wrap;html=1;fillColor=#dae8fc;strokeColor=#6c8ebf;" parent="1" vertex="1">
          <mxGeometry x="1200" y="400" width="100" height="20" as="geometry" />
        </mxCell>
        <mxCell id="R2IqZ1rW75b092OCPJyT-9" value="vehiculo_alquiler" style="ellipse;whiteSpace=wrap;html=1;fillColor=#dae8fc;strokeColor=#6c8ebf;" parent="1" vertex="1">
          <mxGeometry x="900" y="405" width="100" height="20" as="geometry" />
        </mxCell>
        <mxCell id="R2IqZ1rW75b092OCPJyT-10" value="transporte" style="ellipse;whiteSpace=wrap;html=1;fillColor=#dae8fc;strokeColor=#6c8ebf;" parent="1" vertex="1">
          <mxGeometry x="900" y="430" width="100" height="20" as="geometry" />
        </mxCell>
        <mxCell id="R2IqZ1rW75b092OCPJyT-11" value="excursion" style="ellipse;whiteSpace=wrap;html=1;fillColor=#dae8fc;strokeColor=#6c8ebf;" parent="1" vertex="1">
          <mxGeometry x="900" y="460" width="100" height="20" as="geometry" />
        </mxCell>
        <mxCell id="R2IqZ1rW75b092OCPJyT-12" value="alojamiento" style="ellipse;whiteSpace=wrap;html=1;fillColor=#dae8fc;strokeColor=#6c8ebf;" parent="1" vertex="1">
          <mxGeometry x="900" y="490" width="100" height="20" as="geometry" />
        </mxCell>
        <mxCell id="R2IqZ1rW75b092OCPJyT-13" value="precio_total" style="ellipse;whiteSpace=wrap;html=1;" parent="1" vertex="1">
          <mxGeometry x="900" y="515" width="100" height="20" as="geometry" />
        </mxCell>
        <mxCell id="R2IqZ1rW75b092OCPJyT-14" value="precio" style="ellipse;whiteSpace=wrap;html=1;" parent="1" vertex="1">
          <mxGeometry x="1190" y="80" width="100" height="20" as="geometry" />
        </mxCell>
        <mxCell id="R2IqZ1rW75b092OCPJyT-16" value="vehiculo_alquiler" style="ellipse;whiteSpace=wrap;html=1;fillColor=#dae8fc;strokeColor=#6c8ebf;" parent="1" vertex="1">
          <mxGeometry x="1195" y="-35" width="100" height="20" as="geometry" />
        </mxCell>
        <mxCell id="R2IqZ1rW75b092OCPJyT-17" value="transporte" style="ellipse;whiteSpace=wrap;html=1;fillColor=#dae8fc;strokeColor=#6c8ebf;" parent="1" vertex="1">
          <mxGeometry x="1195" y="-10" width="100" height="20" as="geometry" />
        </mxCell>
        <mxCell id="R2IqZ1rW75b092OCPJyT-18" value="excursion" style="ellipse;whiteSpace=wrap;html=1;fillColor=#dae8fc;strokeColor=#6c8ebf;" parent="1" vertex="1">
          <mxGeometry x="1195" y="20" width="100" height="20" as="geometry" />
        </mxCell>
        <mxCell id="R2IqZ1rW75b092OCPJyT-19" value="alojamiento" style="ellipse;whiteSpace=wrap;html=1;fillColor=#dae8fc;strokeColor=#6c8ebf;" parent="1" vertex="1">
          <mxGeometry x="1195" y="50" width="100" height="20" as="geometry" />
        </mxCell>
        <mxCell id="R2IqZ1rW75b092OCPJyT-21" value="id_destino" style="ellipse;whiteSpace=wrap;html=1;fillColor=#dae8fc;strokeColor=#6c8ebf;" parent="1" vertex="1">
          <mxGeometry x="1460" y="745" width="100" height="20" as="geometry" />
        </mxCell>
        <mxCell id="R2IqZ1rW75b092OCPJyT-23" value="id_reserva" style="ellipse;whiteSpace=wrap;html=1;fillColor=#dae8fc;strokeColor=#6c8ebf;" parent="1" vertex="1">
          <mxGeometry x="1460" y="775" width="100" height="20" as="geometry" />
        </mxCell>
        <mxCell id="R2IqZ1rW75b092OCPJyT-25" value="" style="edgeStyle=orthogonalEdgeStyle;rounded=0;orthogonalLoop=1;jettySize=auto;html=1;" parent="1" source="o-_3mG_s1K9jIx6jlIY4-84" target="R2IqZ1rW75b092OCPJyT-20" edge="1">
          <mxGeometry relative="1" as="geometry">
            <mxPoint x="1470" y="342.5" as="sourcePoint" />
            <mxPoint x="1760" y="342.5" as="targetPoint" />
          </mxGeometry>
        </mxCell>
        <mxCell id="R2IqZ1rW75b092OCPJyT-20" value="destino_reserva" style="rhombus;whiteSpace=wrap;html=1;fillColor=#dae8fc;strokeColor=#6c8ebf;gradientColor=#7ea6e0;" parent="1" vertex="1">
          <mxGeometry x="1365" y="675" width="110" height="80" as="geometry" />
        </mxCell>
        <mxCell id="R2IqZ1rW75b092OCPJyT-26" value="kilometraje" style="ellipse;whiteSpace=wrap;html=1;" parent="1" vertex="1">
          <mxGeometry x="880" y="1025" width="100" height="20" as="geometry" />
        </mxCell>
        <mxCell id="R2IqZ1rW75b092OCPJyT-27" value="precio" style="ellipse;whiteSpace=wrap;html=1;" parent="1" vertex="1">
          <mxGeometry x="670" y="777.5" width="100" height="20" as="geometry" />
        </mxCell>
        <mxCell id="R2IqZ1rW75b092OCPJyT-28" value="idioma" style="ellipse;whiteSpace=wrap;html=1;" parent="1" vertex="1">
          <mxGeometry x="670" y="805" width="100" height="20" as="geometry" />
        </mxCell>
        <mxCell id="R2IqZ1rW75b092OCPJyT-29" value="rest_edad" style="ellipse;whiteSpace=wrap;html=1;" parent="1" vertex="1">
          <mxGeometry x="670" y="827.5" width="100" height="20" as="geometry" />
        </mxCell>
        <mxCell id="R2IqZ1rW75b092OCPJyT-30" value="rest_salud" style="ellipse;whiteSpace=wrap;html=1;" parent="1" vertex="1">
          <mxGeometry x="670" y="857.5" width="100" height="20" as="geometry" />
        </mxCell>
        <mxCell id="R2IqZ1rW75b092OCPJyT-31" value="Tipo_transporte" style="rounded=0;whiteSpace=wrap;html=1;fillColor=#fff2cc;strokeColor=#d6b656;gradientColor=#ffd966;" parent="1" vertex="1">
          <mxGeometry x="815" y="1170" width="120" height="60" as="geometry" />
        </mxCell>
        <mxCell id="R2IqZ1rW75b092OCPJyT-32" value="categoria" style="ellipse;whiteSpace=wrap;html=1;" parent="1" vertex="1">
          <mxGeometry x="790" y="1297.5" width="100" height="20" as="geometry" />
        </mxCell>
        <mxCell id="R2IqZ1rW75b092OCPJyT-33" value="id_tipo" style="ellipse;whiteSpace=wrap;html=1;fillColor=#dae8fc;strokeColor=#6c8ebf;" parent="1" vertex="1">
          <mxGeometry x="790" y="1252.5" width="100" height="20" as="geometry" />
        </mxCell>
        <mxCell id="jHd-pFRLJOlzFXW1EjXZ-7" value="Pasajeros" style="rounded=0;whiteSpace=wrap;html=1;fillColor=#bac8d3;strokeColor=#23445d;" parent="1" vertex="1">
          <mxGeometry x="1450" y="40" width="120" height="60" as="geometry" />
        </mxCell>
        <mxCell id="f95F2fE4uRstGQk8PJ_7-3" style="edgeStyle=orthogonalEdgeStyle;rounded=0;orthogonalLoop=1;jettySize=auto;html=1;exitX=0.5;exitY=0;exitDx=0;exitDy=0;entryX=0.5;entryY=1;entryDx=0;entryDy=0;" parent="1" source="f95F2fE4uRstGQk8PJ_7-1" target="jHd-pFRLJOlzFXW1EjXZ-7" edge="1">
          <mxGeometry relative="1" as="geometry" />
        </mxCell>
        <mxCell id="f95F2fE4uRstGQk8PJ_7-1" value="viajan" style="rhombus;whiteSpace=wrap;html=1;fillColor=#bac8d3;strokeColor=#23445d;" parent="1" vertex="1">
          <mxGeometry x="1460" y="120" width="80" height="80" as="geometry" />
        </mxCell>
        <mxCell id="f95F2fE4uRstGQk8PJ_7-4" style="edgeStyle=orthogonalEdgeStyle;rounded=0;orthogonalLoop=1;jettySize=auto;html=1;exitX=0.5;exitY=0;exitDx=0;exitDy=0;entryX=0.688;entryY=0.167;entryDx=0;entryDy=0;entryPerimeter=0;" parent="1" source="o-_3mG_s1K9jIx6jlIY4-127" target="o-_3mG_s1K9jIx6jlIY4-125" edge="1">
          <mxGeometry relative="1" as="geometry">
            <Array as="points">
              <mxPoint x="1270" y="300" />
            </Array>
          </mxGeometry>
        </mxCell>
      </root>
    </mxGraphModel>
  </diagram>
</mxfile>
